<svg width="127" height="27" viewBox="0 0 127 27" fill="none" xmlns="http://www.w3.org/2000/svg">
<path d="M30.756 22.36C29.02 22.36 27.488 22.004 26.16 21.292C24.832 20.58 23.796 19.572 23.052 18.268C22.308 16.964 21.936 15.424 21.936 13.648C21.936 12.352 22.152 11.168 22.584 10.096C23.024 9.016 23.64 8.084 24.432 7.3C25.232 6.516 26.172 5.912 27.252 5.488C28.34 5.056 29.528 4.84 30.816 4.84C32.216 4.84 33.392 5.016 34.344 5.368C35.296 5.72 36.156 6.22 36.924 6.868L34.932 10.144C34.468 9.664 33.908 9.308 33.252 9.076C32.596 8.836 31.872 8.716 31.08 8.716C30.296 8.716 29.596 8.832 28.98 9.064C28.372 9.288 27.852 9.612 27.42 10.036C26.996 10.46 26.672 10.972 26.448 11.572C26.224 12.172 26.112 12.844 26.112 13.588C26.112 14.612 26.312 15.488 26.712 16.216C27.12 16.944 27.7 17.504 28.452 17.896C29.204 18.28 30.104 18.472 31.152 18.472C31.904 18.472 32.648 18.36 33.384 18.136C34.128 17.904 34.832 17.532 35.496 17.02L37.32 20.368C36.544 20.968 35.616 21.452 34.536 21.82C33.456 22.18 32.196 22.36 30.756 22.36ZM46.8418 22.36C45.2658 22.36 43.9418 22.048 42.8698 21.424C41.8058 20.8 41.0018 19.944 40.4578 18.856C39.9138 17.76 39.6418 16.504 39.6418 15.088V5.2H43.6258V15.232C43.6258 16.376 43.9098 17.228 44.4778 17.788C45.0458 18.34 45.8338 18.616 46.8418 18.616C47.8418 18.616 48.6218 18.34 49.1818 17.788C49.7498 17.228 50.0338 16.376 50.0338 15.232V5.2H54.0298V15.088C54.0298 16.496 53.7578 17.748 53.2138 18.844C52.6698 19.932 51.8618 20.792 50.7898 21.424C49.7258 22.048 48.4098 22.36 46.8418 22.36ZM57.9019 22V5.2H61.7299L68.1139 15.796L66.5299 15.808L72.6019 5.2H76.4179V22H72.5539L72.6259 10.288L73.3339 10.54L68.4859 18.832H65.8339L60.7939 10.54L61.4779 10.288L61.5499 22H57.9019ZM80.3784 22V5.2H92.1864V8.656H84.3624V11.776H90.9264V14.968H84.3624V18.508H92.2824V22H80.3784ZM95.6128 22V5.2H99.5488L106.461 15.496V5.2H110.325V22H106.389L99.4648 11.56V22H95.6128ZM113.237 22V18.676L120.701 8.836H113.513V5.2H125.525V8.5L118.097 18.364H125.585V22H113.237Z" fill="#181C20"/>
<circle cx="12.5" cy="15.5" r="6.5" fill="#FF8851"/>
<path d="M10.9097 0L0 22H6.15385L14 6.11997L10.9097 0Z" fill="#181C20"/>
</svg>
