<svg width="159" height="45" viewBox="0 0 159 45" fill="none" xmlns="http://www.w3.org/2000/svg">
<path d="M52.756 41.36C51.02 41.36 49.488 41.004 48.16 40.292C46.832 39.58 45.796 38.572 45.052 37.268C44.308 35.964 43.936 34.424 43.936 32.648C43.936 31.352 44.152 30.168 44.584 29.096C45.024 28.016 45.64 27.084 46.432 26.3C47.232 25.516 48.172 24.912 49.252 24.488C50.34 24.056 51.528 23.84 52.816 23.84C54.216 23.84 55.392 24.016 56.344 24.368C57.296 24.72 58.156 25.22 58.924 25.868L56.932 29.144C56.468 28.664 55.908 28.308 55.252 28.076C54.596 27.836 53.872 27.716 53.08 27.716C52.296 27.716 51.596 27.832 50.98 28.064C50.372 28.288 49.852 28.612 49.42 29.036C48.996 29.46 48.672 29.972 48.448 30.572C48.224 31.172 48.112 31.844 48.112 32.588C48.112 33.612 48.312 34.488 48.712 35.216C49.12 35.944 49.7 36.504 50.452 36.896C51.204 37.28 52.104 37.472 53.152 37.472C53.904 37.472 54.648 37.36 55.384 37.136C56.128 36.904 56.832 36.532 57.496 36.02L59.32 39.368C58.544 39.968 57.616 40.452 56.536 40.82C55.456 41.18 54.196 41.36 52.756 41.36ZM68.8418 41.36C67.2658 41.36 65.9418 41.048 64.8698 40.424C63.8058 39.8 63.0018 38.944 62.4578 37.856C61.9138 36.76 61.6418 35.504 61.6418 34.088V24.2H65.6258V34.232C65.6258 35.376 65.9098 36.228 66.4778 36.788C67.0458 37.34 67.8338 37.616 68.8418 37.616C69.8418 37.616 70.6218 37.34 71.1818 36.788C71.7498 36.228 72.0338 35.376 72.0338 34.232V24.2H76.0298V34.088C76.0298 35.496 75.7578 36.748 75.2138 37.844C74.6698 38.932 73.8618 39.792 72.7898 40.424C71.7258 41.048 70.4098 41.36 68.8418 41.36ZM79.9019 41V24.2H83.7299L90.1139 34.796L88.5299 34.808L94.6019 24.2H98.4179V41H94.5539L94.6259 29.288L95.3339 29.54L90.4859 37.832H87.8339L82.7939 29.54L83.4779 29.288L83.5499 41H79.9019ZM102.378 41V24.2H114.186V27.656H106.362V30.776H112.926V33.968H106.362V37.508H114.282V41H102.378ZM117.613 41V24.2H121.549L128.461 34.496V24.2H132.325V41H128.389L121.465 30.56V41H117.613ZM135.237 41V37.676L142.701 27.836H135.513V24.2H147.525V27.5L140.097 37.364H147.585V41H135.237Z" fill="white"/>
<circle cx="25.4458" cy="31.5531" r="13.2318" fill="#FF8851"/>
<path d="M22.2085 0L0 44.7846H12.5272L28.4993 12.4582L22.2085 0Z" fill="white"/>
</svg>
